# xmcd
#
# Track frame offsets:
#	150
#	20775
#	42808
#	58568
#	78425
#	98445
#	118155
#	138998
#	156365
#	174118
#
# Disc length: 2772 seconds
#
# Revision: 2
# Processed by: cddbd v1.5.2PL0 Copyright (c) Steve Scherf et al.
# Submitted via: EasyCDDAExtractor 15.3.0.1
#
DISCID=770ad20a
DTITLE=Chayanne - Influencias
DYEAR=1994
DGENRE=Latin
TTITLE0=La Vida Sigue Igual
TTITLE1=Amada Amante
TTITLE2=Una Muchacha Y Una Guitarra
TTITLE3=Yo Soy Aquel
TTITLE4=Pavo Real, Agarrense De Las Manos
TTITLE5=Gavilan O Paloma
TTITLE6=Querida
TTITLE7=Amor Libre
TTITLE8=Paso La Vida Pensando
TTITLE9=Pedro Navaja
EXTD=
EXTT0=
EXTT1=
EXTT2=
EXTT3=
EXTT4=
EXTT5=
EXTT6=
EXTT7=
EXTT8=
EXTT9=
PLAYORDER=
